<svg xmlns="http://www.w3.org/2000/svg" viewBox="0 0 80 80" id="call"><path d="M8.015 39.904c2.92 6.467 7.893 13.473 13.643 19.223 6.133 6.133 12.899 10.99 19.052 13.674 3.35 1.462 6.347 2.193 8.87 2.193 2.508 0 4.547-.724 5.994-2.172l5.804-5.802c1.763-1.765 1.605-4.793-.353-6.752l-8.552-8.553c-1.96-1.958-4.99-2.115-6.752-.352l-2.663 2.663c-.738.552-5.299-.853-10.43-5.984-5.134-5.133-6.542-9.697-5.987-10.428l2.666-2.666c1.763-1.764 1.605-4.794-.353-6.752L20.4 19.644c-1.96-1.958-4.988-2.117-6.752-.352l-5.802 5.802c-2.897 2.896-2.837 8.156.168 14.81zm2.66-11.982 5.803-5.802c.04-.04.12-.064.223-.064.226 0 .569.113.872.416l8.552 8.552c.442.442.48.969.353 1.096l-2.666 2.665c-3.314 3.316.503 10.601 5.987 16.085 2.731 2.73 5.734 4.912 8.456 6.141 4.48 2.024 6.703.772 7.628-.155l2.666-2.665c.128-.128.653-.089 1.096.352l8.551 8.553c.442.442.48.968.353 1.095l-5.803 5.803c-1.61 1.611-5.511 1.29-10.436-.86-5.706-2.489-12.036-7.048-17.824-12.835C19.064 50.877 14.39 44.3 11.66 38.257c-2.206-4.883-2.575-8.746-.986-10.335zm63.62 16.415C74.295 22.647 56.648 5 34.958 5v4c19.485 0 35.337 15.853 35.337 35.337h4z"></path><path d="M35.7 15.926v4c13.87 0 25.155 11.284 25.155 25.154h4c0-16.076-13.079-29.154-29.154-29.154z"></path><path d="M50.672 45.08h4c0-10.46-8.51-18.972-18.971-18.972v4c8.255 0 14.971 6.717 14.971 14.972z"></path></svg>