<svg xmlns="http://www.w3.org/2000/svg" enable-background="new 0 0 44 44" viewBox="0 0 44 44" id="invitation-card"><path d="M18 10h8c.552 0 1-.447 1-1s-.448-1-1-1h-8c-.552 0-1 .447-1 1S17.448 10 18 10zM13 15h5c.552 0 1-.447 1-1s-.448-1-1-1h-5c-.552 0-1 .447-1 1S12.448 15 13 15zM21 18c0-.553-.448-1-1-1h-7c-.552 0-1 .447-1 1s.448 1 1 1h7C20.552 19 21 18.553 21 18zM25 13h-4c-.552 0-1 .447-1 1s.448 1 1 1h4c.552 0 1-.447 1-1S25.552 13 25 13z"></path><path d="M41.636,10.979l-1.36-0.842l3.431-3.431c0.391-0.391,0.391-1.023,0-1.414l-3-3c-0.391-0.391-1.023-0.391-1.414,0L36,5.586
		V5c0-1.654-1.346-3-3-3H11C9.346,2,8,3.346,8,5v2.492L2.362,10.98c-1.355,0.842-2.221,2.286-2.339,3.875
		C0.023,14.859,0,15.152,0,15.23V39c0,0.821,0.342,1.608,0.935,2.167c0,0.001,0.017,0.017,0.018,0.017C1.504,41.709,2.229,42,3,42
		h38c0.765,0,1.482-0.288,2.031-0.804c0.005-0.005,0.034-0.029,0.034-0.03C43.658,40.608,44,39.822,44,39V15.23
		c0-0.087-0.02-0.358-0.021-0.358C43.865,13.276,42.997,11.825,41.636,10.979z M40.583,12.68c0.685,0.425,1.163,1.106,1.339,1.882
		L36,19.001v-4.587l2.823-2.823L40.583,12.68z M40,4.414L41.586,6L41,6.586L39.414,5L40,4.414z M38,6.414L39.586,8l-9,9H29v-1.586
		L38,6.414z M10,5c0-0.552,0.449-1,1-1h22c0.551,0,1,0.448,1,1v2.586l-6.707,6.707C27.105,14.48,27,14.734,27,15v2h-4
		c-0.552,0-1,0.447-1,1s0.448,1,1,1h5h1h2c0.265,0,0.52-0.105,0.707-0.293L34,16.414V20.5L26.667,26h-9.333L10,20.5V5z
		 M3.417,12.681L8,9.845V19l-5.921-4.439C2.254,13.786,2.732,13.105,3.417,12.681z M2,38.798V27v-9.998v0L15.413,27.06L2,38.798z
		 M3.663,40l13.713-12h9.247l13.713,12H3.663z M42,17.002V27v11.798L28.587,27.06L42,17.002L42,17.002z"></path></svg>