<svg xmlns="http://www.w3.org/2000/svg" viewBox="0 0 68 68" id="video-call"><path d="M18.07,44.82a1.11,1.11,0,0,1-.43-.09,1,1,0,0,1-.47-1.34,12.59,12.59,0,0,1,20.27-3.51,13.12,13.12,0,0,1,2.47,3.51,1,1,0,0,1-1.8.87,11.2,11.2,0,0,0-2.08-3,10.61,10.61,0,0,0-17.06,3A1,1,0,0,1,18.07,44.82Z"></path><path d="M54.08,48.83H3a1,1,0,0,1-1-1V21.28A4.89,4.89,0,0,1,6.88,16.4H50.2a4.89,4.89,0,0,1,4.88,4.88V47.83A1,1,0,0,1,54.08,48.83ZM4,46.83H53.08V21.28A2.89,2.89,0,0,0,50.2,18.4H6.88A2.89,2.89,0,0,0,4,21.28Z"></path><path d="M50.2,57.86H6.88A4.89,4.89,0,0,1,2,53V47.82a1,1,0,0,1,1-1H54.08a1,1,0,0,1,1,1V53A4.89,4.89,0,0,1,50.2,57.86ZM4,48.82V53a2.88,2.88,0,0,0,2.88,2.88H50.2A2.88,2.88,0,0,0,53.08,53V48.82Z"></path><path d="M36.05,63.71H21a1,1,0,0,1-1-1V56.86a1,1,0,0,1,1-1h15a1,1,0,0,1,1,1v5.85A1,1,0,0,1,36.05,63.71Zm-14-2h13V57.86H22Z"></path><path d="M40.08 63.71H17a1 1 0 0 1 0-2H40.08a1 1 0 0 1 0 2zM28.54 35.22a6.34 6.34 0 0 1 0-12.67h0A6.42 6.42 0 0 1 34.87 29h0A6.36 6.36 0 0 1 28.54 35.22zm0-10.67a4.34 4.34 0 0 0 0 8.67A4.36 4.36 0 0 0 32.87 29a4.42 4.42 0 0 0-4.32-4.4zM33.87 29h0zM65 17.66a1 1 0 0 1-1-1A10.39 10.39 0 0 0 53.62 6.29a1 1 0 0 1 0-2A12.39 12.39 0 0 1 66 16.66 1 1 0 0 1 65 17.66z"></path><path d="M61.08,17.66a1,1,0,0,1-1-1,6.46,6.46,0,0,0-6.46-6.46,1,1,0,0,1,0-2,8.47,8.47,0,0,1,8.46,8.46A1,1,0,0,1,61.08,17.66Z"></path><path d="M57.17,17.66a1,1,0,0,1-1-1,2.55,2.55,0,0,0-2.55-2.54,1,1,0,0,1,0-2,4.55,4.55,0,0,1,4.55,4.54A1,1,0,0,1,57.17,17.66Z"></path></svg>